<svg width="20" height="20" viewBox="0 0 20 20" fill="none" xmlns="http://www.w3.org/2000/svg">
<path d="M7.5 17.0004C3.2 18.4004 3.2 14.5004 1.5 14.0004M13.5 19.0004V15.5004C13.5 14.5004 13.6 14.1004 13 13.5004C15.8 13.2004 18.5 12.1004 18.5 7.50044C18.4988 6.3054 18.0325 5.15775 17.2 4.30044C17.5905 3.26241 17.5545 2.11207 17.1 1.10044C17.1 1.10044 16 0.800439 13.6 2.40044C11.5672 1.87103 9.43276 1.87103 7.4 2.40044C5 0.800439 3.9 1.10044 3.9 1.10044C3.44548 2.11207 3.40953 3.26241 3.8 4.30044C2.96745 5.15775 2.50122 6.3054 2.5 7.50044C2.5 12.1004 5.2 13.2004 8 13.5004C7.4 14.1004 7.4 14.7004 7.5 15.5004V19.0004" stroke="#545F71" stroke-width="2" stroke-linecap="round" stroke-linejoin="round"/>
</svg>
