<svg width="20" height="21" viewBox="0 0 20 21" fill="none" xmlns="http://www.w3.org/2000/svg">
<path d="M7.5 17.5004C3.2 18.9004 3.2 15.0004 1.5 14.5004M13.5 19.5004V16.0004C13.5 15.0004 13.6 14.6004 13 14.0004C15.8 13.7004 18.5 12.6004 18.5 8.00044C18.4988 6.8054 18.0325 5.65775 17.2 4.80044C17.5905 3.76241 17.5545 2.61207 17.1 1.60044C17.1 1.60044 16 1.30044 13.6 2.90044C11.5672 2.37103 9.43276 2.37103 7.4 2.90044C5 1.30044 3.9 1.60044 3.9 1.60044C3.44548 2.61207 3.40953 3.76241 3.8 4.80044C2.96745 5.65775 2.50122 6.8054 2.5 8.00044C2.5 12.6004 5.2 13.7004 8 14.0004C7.4 14.6004 7.4 15.2004 7.5 16.0004V19.5004" stroke="#0C0826" stroke-width="2" stroke-linecap="round" stroke-linejoin="round"/>
</svg>
