<svg width="25" height="25" viewBox="0 0 25 25" fill="none" xmlns="http://www.w3.org/2000/svg">
<g clip-path="url(#clip0_1732_19421)">
<g clip-path="url(#clip1_1732_19421)">
<path d="M9.5 19.5004C5.2 20.9004 5.2 17.0004 3.5 16.5004M15.5 21.5004V18.0004C15.5 17.0004 15.6 16.6004 15 16.0004C17.8 15.7004 20.5 14.6004 20.5 10.0004C20.4988 8.8054 20.0325 7.65775 19.2 6.80044C19.5905 5.76241 19.5545 4.61207 19.1 3.60044C19.1 3.60044 18 3.30044 15.6 4.90044C13.5672 4.37103 11.4328 4.37103 9.4 4.90044C7 3.30044 5.9 3.60044 5.9 3.60044C5.44548 4.61207 5.40953 5.76241 5.8 6.80044C4.96745 7.65775 4.50122 8.8054 4.5 10.0004C4.5 14.6004 7.2 15.7004 10 16.0004C9.4 16.6004 9.4 17.2004 9.5 18.0004V21.5004" stroke="#545F71" stroke-width="2" stroke-linecap="round" stroke-linejoin="round"/>
</g>
</g>
<defs>
<clipPath id="clip0_1732_19421">
<rect width="24" height="24" fill="white" transform="translate(0.5 0.5)"/>
</clipPath>
<clipPath id="clip1_1732_19421">
<rect width="24" height="24" fill="white" transform="translate(0.5 0.5)"/>
</clipPath>
</defs>
</svg>
