<svg width="25" height="25" viewBox="0 0 25 25" fill="none" xmlns="http://www.w3.org/2000/svg">
<path d="M7.5 12V14.5M7.5 12V6C7.5 5.17157 8.17157 4.5 9 4.5C9.82843 4.5 10.5 5.17157 10.5 6M7.5 12C7.5 11.1716 6.82843 10.5 6 10.5C5.17157 10.5 4.5 11.1716 4.5 12V14C4.5 18.1421 7.85786 21.5 12 21.5C16.1421 21.5 19.5 18.1421 19.5 14V9C19.5 8.17157 18.8284 7.5 18 7.5C17.1716 7.5 16.5 8.17157 16.5 9M10.5 6V11.5M10.5 6V5C10.5 4.17157 11.1716 3.5 12 3.5C12.8284 3.5 13.5 4.17157 13.5 5V6M13.5 6V11.5M13.5 6C13.5 5.17157 14.1716 4.5 15 4.5C15.8284 4.5 16.5 5.17157 16.5 6V9M16.5 9V11.5" stroke="#545F71" stroke-width="2" stroke-linecap="round" stroke-linejoin="round"/>
</svg>
