<svg width="17" height="21" viewBox="0 0 17 21" fill="none" xmlns="http://www.w3.org/2000/svg">
<path d="M4 10V12.5M4 10V4C4 3.17157 4.67157 2.5 5.5 2.5C6.32843 2.5 7 3.17157 7 4M4 10C4 9.17157 3.32843 8.5 2.5 8.5C1.67157 8.5 1 9.17157 1 10V12C1 16.1421 4.35786 19.5 8.5 19.5C12.6421 19.5 16 16.1421 16 12V7C16 6.17157 15.3284 5.5 14.5 5.5C13.6716 5.5 13 6.17157 13 7M7 4V9.5M7 4V3C7 2.17157 7.67157 1.5 8.5 1.5C9.32843 1.5 10 2.17157 10 3V4M10 4V9.5M10 4C10 3.17157 10.6716 2.5 11.5 2.5C12.3284 2.5 13 3.17157 13 4V7M13 7V9.5" stroke="#3D3951" stroke-width="2" stroke-linecap="round" stroke-linejoin="round"/>
</svg>
