<svg width="328" height="160" viewBox="0 0 328 160" fill="none" xmlns="http://www.w3.org/2000/svg">
<rect x="2" y="1.5" width="324" height="157" rx="10.5" fill="#EEF1F4"/>
<rect x="2" y="1.5" width="324" height="157" rx="10.5" stroke="#3D3951" stroke-width="3"/>
<path d="M153.833 84.332L159.947 78.2176C160.989 77.1763 162.677 77.1763 163.719 78.2176L169.833 84.332M167.166 81.6654L169.281 79.551C170.322 78.5096 172.011 78.5096 173.052 79.551L175.166 81.6654M167.166 73.6654H167.18M156.5 89.6654H172.5C173.972 89.6654 175.166 88.4715 175.166 86.9987V70.9987C175.166 69.5259 173.972 68.332 172.5 68.332H156.5C155.027 68.332 153.833 69.5259 153.833 70.9987V86.9987C153.833 88.4715 155.027 89.6654 156.5 89.6654Z" stroke="#3D3951" stroke-width="2" stroke-linecap="round" stroke-linejoin="round"/>
</svg>
