<svg width="22" height="18" viewBox="0 0 22 18" fill="none" xmlns="http://www.w3.org/2000/svg">
<path d="M6 17H1V15C1 13.3431 2.34315 12 4 12C4.95561 12 5.80686 12.4468 6.35625 13.1429M6 17H16M6 17V15C6 14.3438 6.12642 13.717 6.35625 13.1429M16 17H21V15C21 13.3431 19.6569 12 18 12C17.0444 12 16.1931 12.4468 15.6438 13.1429M16 17V15C16 14.3438 15.8736 13.717 15.6438 13.1429M15.6438 13.1429C14.9065 11.301 13.1052 10 11 10C8.89482 10 7.0935 11.301 6.35625 13.1429M8 4C8 5.65685 9.34315 7 11 7C12.6569 7 14 5.65685 14 4C14 2.34315 12.6569 1 11 1C9.34315 1 8 2.34315 8 4ZM2 7C2 8.10457 2.89543 9 4 9C5.10457 9 6 8.10457 6 7C6 5.89543 5.10457 5 4 5C2.89543 5 2 5.89543 2 7ZM16 7C16 8.10457 16.8954 9 18 9C19.1046 9 20 8.10457 20 7C20 5.89543 19.1046 5 18 5C16.8954 5 16 5.89543 16 7Z" stroke="white" stroke-width="2" stroke-linecap="round" stroke-linejoin="round"/>
</svg>

