<svg width="24" height="25" viewBox="0 0 24 25" fill="none" xmlns="http://www.w3.org/2000/svg">
<path d="M13.4004 11.9004V6.90039C13.4004 6.63517 13.295 6.38082 13.1075 6.19328C12.92 6.00575 12.6656 5.90039 12.4004 5.90039C12.1352 5.90039 11.8808 6.00575 11.6933 6.19328C11.5057 6.38082 11.4004 6.63517 11.4004 6.90039V11.9004H6.40039C6.13517 11.9004 5.88082 12.0057 5.69328 12.1933C5.50575 12.3808 5.40039 12.6352 5.40039 12.9004C5.40039 13.1656 5.50575 13.42 5.69328 13.6075C5.88082 13.795 6.13517 13.9004 6.40039 13.9004H11.4004V18.9004C11.4004 19.1656 11.5057 19.42 11.6933 19.6075C11.8808 19.795 12.1352 19.9004 12.4004 19.9004C12.6656 19.9004 12.92 19.795 13.1075 19.6075C13.295 19.42 13.4004 19.1656 13.4004 18.9004V13.9004H18.4004C18.6656 13.9004 18.92 13.795 19.1075 13.6075C19.295 13.42 19.4004 13.1656 19.4004 12.9004C19.4004 12.6352 19.295 12.3808 19.1075 12.1933C18.92 12.0057 18.6656 11.9004 18.4004 11.9004H13.4004Z" fill="#3D3951"/>
</svg>
