<svg width="36" height="36" viewBox="0 0 36 36" fill="none" xmlns="http://www.w3.org/2000/svg">
<rect x="1" y="1" width="34" height="34" rx="17" stroke="#6D6B7D" stroke-width="2"/>
<path d="M17.9997 12.1673L17.9997 12.1757M17.9997 18.0007L17.9997 18.009M17.9997 23.834L17.9997 23.8423M17.9997 13.0007C17.5394 13.0007 17.1663 12.6276 17.1663 12.1673C17.1663 11.7071 17.5394 11.334 17.9997 11.334C18.4599 11.334 18.833 11.7071 18.833 12.1673C18.833 12.6276 18.4599 13.0007 17.9997 13.0007ZM17.9997 18.834C17.5394 18.834 17.1663 18.4609 17.1663 18.0007C17.1663 17.5404 17.5394 17.1673 17.9997 17.1673C18.4599 17.1673 18.833 17.5404 18.833 18.0007C18.833 18.4609 18.4599 18.834 17.9997 18.834ZM17.9997 24.6673C17.5394 24.6673 17.1663 24.2942 17.1663 23.834C17.1663 23.3737 17.5394 23.0007 17.9997 23.0007C18.4599 23.0007 18.833 23.3737 18.833 23.834C18.833 24.2942 18.4599 24.6673 17.9997 24.6673Z" stroke="#3D3951" stroke-width="2" stroke-linecap="round" stroke-linejoin="round"/>
</svg>

